<mxfile host="65bd71144e">
    <diagram name="page_1" id="0eeWLhEhAbjt74QTUGkZ">
        <mxGraphModel dx="2029" dy="1762" grid="1" gridSize="10" guides="1" tooltips="1" connect="1" arrows="1" fold="1" page="1" pageScale="1" pageWidth="827" pageHeight="1169" math="0" shadow="0">
            <root>
                <mxCell id="0"/>
                <mxCell id="1" parent="0"/>
                <mxCell id="EA9z76p3zM__a-H7yWGD-37" value="&lt;font style=&quot;font-size: 32px;&quot;&gt;&lt;b&gt;Models and ports&lt;br&gt;&lt;/b&gt;&lt;/font&gt;" style="text;html=1;strokeColor=none;fillColor=none;align=center;verticalAlign=middle;whiteSpace=wrap;rounded=0;" parent="1" vertex="1">
                    <mxGeometry x="950" y="-200" width="380" height="120" as="geometry"/>
                </mxCell>
                <mxCell id="EA9z76p3zM__a-H7yWGD-39" value="&lt;font style=&quot;font-size: 32px;&quot;&gt;&lt;b style=&quot;border-color: var(--border-color); font-size: 12px;&quot;&gt;&lt;font style=&quot;border-color: var(--border-color); font-size: 24px;&quot;&gt;Data visualization&lt;/font&gt;&lt;/b&gt;&lt;b&gt;&lt;br&gt;&lt;/b&gt;&lt;/font&gt;" style="text;html=1;strokeColor=none;fillColor=none;align=center;verticalAlign=middle;whiteSpace=wrap;rounded=0;" parent="1" vertex="1">
                    <mxGeometry x="640" y="420" width="430" height="120" as="geometry"/>
                </mxCell>
                <mxCell id="aWoHtGz9jkfwQIE-XJvv-16" value="" style="endArrow=classic;html=1;rounded=0;exitX=0.5;exitY=0;exitDx=0;exitDy=0;" parent="1" source="io5GCxzzSzc3zPwwghzN-176" edge="1">
                    <mxGeometry width="50" height="50" relative="1" as="geometry">
                        <mxPoint x="477" y="760" as="sourcePoint"/>
                        <mxPoint x="650" y="670" as="targetPoint"/>
                    </mxGeometry>
                </mxCell>
                <mxCell id="aWoHtGz9jkfwQIE-XJvv-19" value="" style="endArrow=classic;html=1;rounded=0;exitX=0.25;exitY=0;exitDx=0;exitDy=0;" parent="1" source="io5GCxzzSzc3zPwwghzN-185" edge="1">
                    <mxGeometry width="50" height="50" relative="1" as="geometry">
                        <mxPoint x="829" y="860" as="sourcePoint"/>
                        <mxPoint x="960" y="660" as="targetPoint"/>
                    </mxGeometry>
                </mxCell>
                <mxCell id="io5GCxzzSzc3zPwwghzN-148" value="" style="group" parent="1" vertex="1" connectable="0">
                    <mxGeometry x="600" y="560" width="80" height="110" as="geometry"/>
                </mxCell>
                <mxCell id="io5GCxzzSzc3zPwwghzN-149" value="e_1" style="ellipse;whiteSpace=wrap;html=1;aspect=fixed;fillColor=#dae8fc;strokeColor=#6c8ebf;" parent="io5GCxzzSzc3zPwwghzN-148" vertex="1">
                    <mxGeometry width="80" height="80" as="geometry"/>
                </mxCell>
                <mxCell id="io5GCxzzSzc3zPwwghzN-150" value="flow_n" style="rounded=0;whiteSpace=wrap;html=1;fillColor=#dae8fc;strokeColor=#6c8ebf;" parent="io5GCxzzSzc3zPwwghzN-148" vertex="1">
                    <mxGeometry x="15" y="80" width="50" height="30" as="geometry"/>
                </mxCell>
                <mxCell id="io5GCxzzSzc3zPwwghzN-151" value="" style="group" parent="1" vertex="1" connectable="0">
                    <mxGeometry x="770" y="560" width="80" height="110" as="geometry"/>
                </mxCell>
                <mxCell id="io5GCxzzSzc3zPwwghzN-152" value="e_2" style="ellipse;whiteSpace=wrap;html=1;aspect=fixed;fillColor=#dae8fc;strokeColor=#6c8ebf;" parent="io5GCxzzSzc3zPwwghzN-151" vertex="1">
                    <mxGeometry width="80" height="80" as="geometry"/>
                </mxCell>
                <mxCell id="io5GCxzzSzc3zPwwghzN-153" value="flow_n" style="rounded=0;whiteSpace=wrap;html=1;fillColor=#dae8fc;strokeColor=#6c8ebf;" parent="io5GCxzzSzc3zPwwghzN-151" vertex="1">
                    <mxGeometry x="15" y="80" width="50" height="30" as="geometry"/>
                </mxCell>
                <mxCell id="io5GCxzzSzc3zPwwghzN-154" value="" style="group" parent="1" vertex="1" connectable="0">
                    <mxGeometry x="930" y="560" width="80" height="110" as="geometry"/>
                </mxCell>
                <mxCell id="io5GCxzzSzc3zPwwghzN-155" value="e_3" style="ellipse;whiteSpace=wrap;html=1;aspect=fixed;fillColor=#dae8fc;strokeColor=#6c8ebf;" parent="io5GCxzzSzc3zPwwghzN-154" vertex="1">
                    <mxGeometry width="80" height="80" as="geometry"/>
                </mxCell>
                <mxCell id="io5GCxzzSzc3zPwwghzN-156" value="flow_n" style="rounded=0;whiteSpace=wrap;html=1;fillColor=#dae8fc;strokeColor=#6c8ebf;" parent="io5GCxzzSzc3zPwwghzN-154" vertex="1">
                    <mxGeometry x="15" y="80" width="50" height="30" as="geometry"/>
                </mxCell>
                <mxCell id="io5GCxzzSzc3zPwwghzN-173" value="" style="group" parent="1" vertex="1" connectable="0">
                    <mxGeometry x="586" y="850" width="121.73000000000002" height="150" as="geometry"/>
                </mxCell>
                <mxCell id="io5GCxzzSzc3zPwwghzN-174" value="l_1_2" style="ellipse;whiteSpace=wrap;html=1;" parent="io5GCxzzSzc3zPwwghzN-173" vertex="1">
                    <mxGeometry y="30" width="120" height="80" as="geometry"/>
                </mxCell>
                <mxCell id="io5GCxzzSzc3zPwwghzN-175" value="" style="group;fillColor=#dae8fc;strokeColor=#6c8ebf;" parent="io5GCxzzSzc3zPwwghzN-173" vertex="1" connectable="0">
                    <mxGeometry x="10" width="100" height="30" as="geometry"/>
                </mxCell>
                <mxCell id="io5GCxzzSzc3zPwwghzN-176" value="flow_from" style="rounded=0;whiteSpace=wrap;html=1;fillColor=#dae8fc;strokeColor=#6c8ebf;" parent="io5GCxzzSzc3zPwwghzN-175" vertex="1">
                    <mxGeometry x="-10" width="60" height="30" as="geometry"/>
                </mxCell>
                <mxCell id="io5GCxzzSzc3zPwwghzN-177" value="flow_to" style="rounded=0;whiteSpace=wrap;html=1;fillColor=#dae8fc;strokeColor=#6c8ebf;" parent="io5GCxzzSzc3zPwwghzN-175" vertex="1">
                    <mxGeometry x="50" width="50" height="30" as="geometry"/>
                </mxCell>
                <mxCell id="120" value="impact" style="rounded=0;whiteSpace=wrap;html=1;fillColor=#dae8fc;strokeColor=#6c8ebf;" vertex="1" parent="io5GCxzzSzc3zPwwghzN-173">
                    <mxGeometry x="35.860000000000014" y="110" width="50" height="30" as="geometry"/>
                </mxCell>
                <mxCell id="io5GCxzzSzc3zPwwghzN-181" value="" style="group" parent="1" vertex="1" connectable="0">
                    <mxGeometry x="751.73" y="850" width="121.73000000000002" height="140" as="geometry"/>
                </mxCell>
                <mxCell id="io5GCxzzSzc3zPwwghzN-182" value="l_1_3" style="ellipse;whiteSpace=wrap;html=1;" parent="io5GCxzzSzc3zPwwghzN-181" vertex="1">
                    <mxGeometry y="30" width="120" height="80" as="geometry"/>
                </mxCell>
                <mxCell id="io5GCxzzSzc3zPwwghzN-183" value="" style="group;fillColor=#dae8fc;strokeColor=#6c8ebf;" parent="io5GCxzzSzc3zPwwghzN-181" vertex="1" connectable="0">
                    <mxGeometry x="10" width="100" height="30" as="geometry"/>
                </mxCell>
                <mxCell id="io5GCxzzSzc3zPwwghzN-184" value="flow_from" style="rounded=0;whiteSpace=wrap;html=1;fillColor=#dae8fc;strokeColor=#6c8ebf;" parent="io5GCxzzSzc3zPwwghzN-183" vertex="1">
                    <mxGeometry x="-10" width="60" height="30" as="geometry"/>
                </mxCell>
                <mxCell id="io5GCxzzSzc3zPwwghzN-185" value="flow_to" style="rounded=0;whiteSpace=wrap;html=1;fillColor=#dae8fc;strokeColor=#6c8ebf;" parent="io5GCxzzSzc3zPwwghzN-183" vertex="1">
                    <mxGeometry x="50" width="50" height="30" as="geometry"/>
                </mxCell>
                <mxCell id="119" value="impact" style="rounded=0;whiteSpace=wrap;html=1;fillColor=#dae8fc;strokeColor=#6c8ebf;" vertex="1" parent="io5GCxzzSzc3zPwwghzN-181">
                    <mxGeometry x="35" y="110" width="50" height="30" as="geometry"/>
                </mxCell>
                <mxCell id="io5GCxzzSzc3zPwwghzN-189" value="" style="group" parent="1" vertex="1" connectable="0">
                    <mxGeometry x="941.73" y="850" width="121.73000000000002" height="140" as="geometry"/>
                </mxCell>
                <mxCell id="io5GCxzzSzc3zPwwghzN-190" value="l_2_3" style="ellipse;whiteSpace=wrap;html=1;" parent="io5GCxzzSzc3zPwwghzN-189" vertex="1">
                    <mxGeometry y="30" width="120" height="80" as="geometry"/>
                </mxCell>
                <mxCell id="io5GCxzzSzc3zPwwghzN-191" value="" style="group;fillColor=#dae8fc;strokeColor=#6c8ebf;" parent="io5GCxzzSzc3zPwwghzN-189" vertex="1" connectable="0">
                    <mxGeometry x="10" width="100" height="30" as="geometry"/>
                </mxCell>
                <mxCell id="io5GCxzzSzc3zPwwghzN-192" value="flow_from" style="rounded=0;whiteSpace=wrap;html=1;fillColor=#dae8fc;strokeColor=#6c8ebf;" parent="io5GCxzzSzc3zPwwghzN-191" vertex="1">
                    <mxGeometry x="-10" width="60" height="30" as="geometry"/>
                </mxCell>
                <mxCell id="io5GCxzzSzc3zPwwghzN-193" value="flow_to" style="rounded=0;whiteSpace=wrap;html=1;fillColor=#dae8fc;strokeColor=#6c8ebf;" parent="io5GCxzzSzc3zPwwghzN-191" vertex="1">
                    <mxGeometry x="50" width="50" height="30" as="geometry"/>
                </mxCell>
                <mxCell id="118" value="impact" style="rounded=0;whiteSpace=wrap;html=1;fillColor=#dae8fc;strokeColor=#6c8ebf;" vertex="1" parent="io5GCxzzSzc3zPwwghzN-189">
                    <mxGeometry x="35" y="110" width="50" height="30" as="geometry"/>
                </mxCell>
                <mxCell id="aWoHtGz9jkfwQIE-XJvv-17" value="" style="endArrow=classic;html=1;rounded=0;entryX=0.25;entryY=1;entryDx=0;entryDy=0;" parent="1" target="io5GCxzzSzc3zPwwghzN-153" edge="1">
                    <mxGeometry width="50" height="50" relative="1" as="geometry">
                        <mxPoint x="660" y="850" as="sourcePoint"/>
                        <mxPoint x="646" y="680" as="targetPoint"/>
                    </mxGeometry>
                </mxCell>
                <mxCell id="aWoHtGz9jkfwQIE-XJvv-18" value="" style="endArrow=classic;html=1;rounded=0;exitX=0.5;exitY=0;exitDx=0;exitDy=0;entryX=0.75;entryY=1;entryDx=0;entryDy=0;" parent="1" source="io5GCxzzSzc3zPwwghzN-184" target="io5GCxzzSzc3zPwwghzN-150" edge="1">
                    <mxGeometry width="50" height="50" relative="1" as="geometry">
                        <mxPoint x="649" y="860" as="sourcePoint"/>
                        <mxPoint x="646" y="680" as="targetPoint"/>
                    </mxGeometry>
                </mxCell>
                <mxCell id="aWoHtGz9jkfwQIE-XJvv-20" value="" style="endArrow=classic;html=1;rounded=0;exitX=0.5;exitY=0;exitDx=0;exitDy=0;entryX=0.75;entryY=1;entryDx=0;entryDy=0;" parent="1" source="io5GCxzzSzc3zPwwghzN-192" target="io5GCxzzSzc3zPwwghzN-153" edge="1">
                    <mxGeometry width="50" height="50" relative="1" as="geometry">
                        <mxPoint x="865" y="860" as="sourcePoint"/>
                        <mxPoint x="956" y="670" as="targetPoint"/>
                    </mxGeometry>
                </mxCell>
                <mxCell id="aWoHtGz9jkfwQIE-XJvv-21" value="" style="endArrow=classic;html=1;rounded=0;entryX=0.5;entryY=1;entryDx=0;entryDy=0;exitX=0.25;exitY=0;exitDx=0;exitDy=0;" parent="1" source="io5GCxzzSzc3zPwwghzN-193" target="io5GCxzzSzc3zPwwghzN-156" edge="1">
                    <mxGeometry width="50" height="50" relative="1" as="geometry">
                        <mxPoint x="1056" y="850" as="sourcePoint"/>
                        <mxPoint x="833" y="680" as="targetPoint"/>
                    </mxGeometry>
                </mxCell>
                <mxCell id="gQHjPlM2CJMaZ_1cljnZ-1" value="N1" style="ellipse;whiteSpace=wrap;html=1;aspect=fixed;" parent="1" vertex="1">
                    <mxGeometry x="160" y="-20.400000000000006" width="80" height="80" as="geometry"/>
                </mxCell>
                <mxCell id="gQHjPlM2CJMaZ_1cljnZ-2" value="N2" style="ellipse;whiteSpace=wrap;html=1;aspect=fixed;" parent="1" vertex="1">
                    <mxGeometry x="374" y="-20.400000000000006" width="80" height="80" as="geometry"/>
                </mxCell>
                <mxCell id="gQHjPlM2CJMaZ_1cljnZ-3" value="N3" style="ellipse;whiteSpace=wrap;html=1;aspect=fixed;" parent="1" vertex="1">
                    <mxGeometry x="260" y="159.6" width="80" height="80" as="geometry"/>
                </mxCell>
                <mxCell id="gQHjPlM2CJMaZ_1cljnZ-4" value="" style="endArrow=none;html=1;rounded=0;exitX=1;exitY=1;exitDx=0;exitDy=0;entryX=0;entryY=0;entryDx=0;entryDy=0;" parent="1" source="gQHjPlM2CJMaZ_1cljnZ-1" target="gQHjPlM2CJMaZ_1cljnZ-3" edge="1">
                    <mxGeometry width="50" height="50" relative="1" as="geometry">
                        <mxPoint x="390" y="259.6" as="sourcePoint"/>
                        <mxPoint x="440" y="209.6" as="targetPoint"/>
                    </mxGeometry>
                </mxCell>
                <mxCell id="95" value="AC" style="edgeLabel;html=1;align=center;verticalAlign=middle;resizable=0;points=[];" vertex="1" connectable="0" parent="gQHjPlM2CJMaZ_1cljnZ-4">
                    <mxGeometry x="-0.4693" y="-2" relative="1" as="geometry">
                        <mxPoint as="offset"/>
                    </mxGeometry>
                </mxCell>
                <mxCell id="gQHjPlM2CJMaZ_1cljnZ-5" value="" style="endArrow=none;html=1;rounded=0;exitX=1;exitY=0.5;exitDx=0;exitDy=0;entryX=0;entryY=0.5;entryDx=0;entryDy=0;" parent="1" source="gQHjPlM2CJMaZ_1cljnZ-1" target="gQHjPlM2CJMaZ_1cljnZ-2" edge="1">
                    <mxGeometry width="50" height="50" relative="1" as="geometry">
                        <mxPoint x="210" y="69.6" as="sourcePoint"/>
                        <mxPoint x="272" y="171.6" as="targetPoint"/>
                    </mxGeometry>
                </mxCell>
                <mxCell id="93" value="AC" style="edgeLabel;html=1;align=center;verticalAlign=middle;resizable=0;points=[];" vertex="1" connectable="0" parent="gQHjPlM2CJMaZ_1cljnZ-5">
                    <mxGeometry x="-0.206" y="1" relative="1" as="geometry">
                        <mxPoint as="offset"/>
                    </mxGeometry>
                </mxCell>
                <mxCell id="gQHjPlM2CJMaZ_1cljnZ-6" value="" style="endArrow=none;html=1;rounded=0;exitX=0;exitY=1;exitDx=0;exitDy=0;entryX=1;entryY=0;entryDx=0;entryDy=0;" parent="1" source="gQHjPlM2CJMaZ_1cljnZ-2" target="gQHjPlM2CJMaZ_1cljnZ-3" edge="1">
                    <mxGeometry width="50" height="50" relative="1" as="geometry">
                        <mxPoint x="210" y="69.6" as="sourcePoint"/>
                        <mxPoint x="272" y="171.6" as="targetPoint"/>
                    </mxGeometry>
                </mxCell>
                <mxCell id="94" value="AC" style="edgeLabel;html=1;align=center;verticalAlign=middle;resizable=0;points=[];" vertex="1" connectable="0" parent="gQHjPlM2CJMaZ_1cljnZ-6">
                    <mxGeometry x="-0.2764" y="-1" relative="1" as="geometry">
                        <mxPoint as="offset"/>
                    </mxGeometry>
                </mxCell>
                <mxCell id="EA9z76p3zM__a-H7yWGD-36" value="&lt;font style=&quot;font-size: 32px;&quot;&gt;&lt;b&gt;Physical system&lt;br&gt;&lt;/b&gt;&lt;/font&gt;" style="text;html=1;strokeColor=none;fillColor=none;align=center;verticalAlign=middle;whiteSpace=wrap;rounded=0;" parent="1" vertex="1">
                    <mxGeometry x="87" y="-260" width="380" height="120" as="geometry"/>
                </mxCell>
                <mxCell id="28" value="File &quot;network.txt&quot;" style="swimlane;fontStyle=0;childLayout=stackLayout;horizontal=1;startSize=30;horizontalStack=0;resizeParent=1;resizeParentMax=0;resizeLast=0;collapsible=1;marginBottom=0;whiteSpace=wrap;html=1;fillColor=#ccccff;" parent="1" vertex="1">
                    <mxGeometry x="-46" y="480" width="320" height="600" as="geometry"/>
                </mxCell>
                <mxCell id="29" value="e_1, e_2, e_3 : Node" style="text;strokeColor=none;fillColor=none;align=left;verticalAlign=middle;spacingLeft=4;spacingRight=4;overflow=hidden;points=[[0,0.5],[1,0.5]];portConstraint=eastwest;rotatable=0;whiteSpace=wrap;html=1;" parent="28" vertex="1">
                    <mxGeometry y="30" width="320" height="30" as="geometry"/>
                </mxCell>
                <mxCell id="76" value="l_1_2, l_2_3, l_1_3 : LinkReceivingImpact" style="text;strokeColor=none;fillColor=none;align=left;verticalAlign=middle;spacingLeft=4;spacingRight=4;overflow=hidden;points=[[0,0.5],[1,0.5]];portConstraint=eastwest;rotatable=0;whiteSpace=wrap;html=1;" parent="28" vertex="1">
                    <mxGeometry y="60" width="320" height="30" as="geometry"/>
                </mxCell>
                <mxCell id="135" value="hvdc : LinkSendingImpact" style="text;strokeColor=none;fillColor=none;align=left;verticalAlign=middle;spacingLeft=4;spacingRight=4;overflow=hidden;points=[[0,0.5],[1,0.5]];portConstraint=eastwest;rotatable=0;whiteSpace=wrap;html=1;" vertex="1" parent="28">
                    <mxGeometry y="90" width="320" height="30" as="geometry"/>
                </mxCell>
                <mxCell id="G6jGmKj02sHsCHb4SvRn-209" value="mesh_1 : KirchhoffLaw" style="text;strokeColor=none;fillColor=none;align=left;verticalAlign=middle;spacingLeft=4;spacingRight=4;overflow=hidden;points=[[0,0.5],[1,0.5]];portConstraint=eastwest;rotatable=0;whiteSpace=wrap;html=1;" parent="28" vertex="1">
                    <mxGeometry y="120" width="320" height="30" as="geometry"/>
                </mxCell>
                <mxCell id="77" value="e_1.flow_n l_1_2.flow_from" style="text;strokeColor=none;fillColor=none;align=left;verticalAlign=middle;spacingLeft=4;spacingRight=4;overflow=hidden;points=[[0,0.5],[1,0.5]];portConstraint=eastwest;rotatable=0;whiteSpace=wrap;html=1;" parent="28" vertex="1">
                    <mxGeometry y="150" width="320" height="30" as="geometry"/>
                </mxCell>
                <mxCell id="78" value="e_1.flow_n l_1_3.flow_from" style="text;strokeColor=none;fillColor=none;align=left;verticalAlign=middle;spacingLeft=4;spacingRight=4;overflow=hidden;points=[[0,0.5],[1,0.5]];portConstraint=eastwest;rotatable=0;whiteSpace=wrap;html=1;" parent="28" vertex="1">
                    <mxGeometry y="180" width="320" height="30" as="geometry"/>
                </mxCell>
                <mxCell id="79" value="e_2.flow_n l_1_2.flow_to" style="text;strokeColor=none;fillColor=none;align=left;verticalAlign=middle;spacingLeft=4;spacingRight=4;overflow=hidden;points=[[0,0.5],[1,0.5]];portConstraint=eastwest;rotatable=0;whiteSpace=wrap;html=1;" parent="28" vertex="1">
                    <mxGeometry y="210" width="320" height="30" as="geometry"/>
                </mxCell>
                <mxCell id="80" value="e_2.flow_n l_2_3.flow_from" style="text;strokeColor=none;fillColor=none;align=left;verticalAlign=middle;spacingLeft=4;spacingRight=4;overflow=hidden;points=[[0,0.5],[1,0.5]];portConstraint=eastwest;rotatable=0;whiteSpace=wrap;html=1;" parent="28" vertex="1">
                    <mxGeometry y="240" width="320" height="30" as="geometry"/>
                </mxCell>
                <mxCell id="81" value="e_3.flow_n l_1_3.flow_to" style="text;strokeColor=none;fillColor=none;align=left;verticalAlign=middle;spacingLeft=4;spacingRight=4;overflow=hidden;points=[[0,0.5],[1,0.5]];portConstraint=eastwest;rotatable=0;whiteSpace=wrap;html=1;" parent="28" vertex="1">
                    <mxGeometry y="270" width="320" height="30" as="geometry"/>
                </mxCell>
                <mxCell id="82" value="e_3.flow_n l_2_3.flow_to" style="text;strokeColor=none;fillColor=none;align=left;verticalAlign=middle;spacingLeft=4;spacingRight=4;overflow=hidden;points=[[0,0.5],[1,0.5]];portConstraint=eastwest;rotatable=0;whiteSpace=wrap;html=1;" parent="28" vertex="1">
                    <mxGeometry y="300" width="320" height="30" as="geometry"/>
                </mxCell>
                <mxCell id="137" value="e_1.flow_n hvdc.flow_from" style="text;strokeColor=none;fillColor=none;align=left;verticalAlign=middle;spacingLeft=4;spacingRight=4;overflow=hidden;points=[[0,0.5],[1,0.5]];portConstraint=eastwest;rotatable=0;whiteSpace=wrap;html=1;" vertex="1" parent="28">
                    <mxGeometry y="330" width="320" height="30" as="geometry"/>
                </mxCell>
                <mxCell id="138" value="e_2.flow_n hvdc.flow_to" style="text;strokeColor=none;fillColor=none;align=left;verticalAlign=middle;spacingLeft=4;spacingRight=4;overflow=hidden;points=[[0,0.5],[1,0.5]];portConstraint=eastwest;rotatable=0;whiteSpace=wrap;html=1;" vertex="1" parent="28">
                    <mxGeometry y="360" width="320" height="30" as="geometry"/>
                </mxCell>
                <mxCell id="G6jGmKj02sHsCHb4SvRn-211" value="mesh_1.flow_k l_1_2.flow_from" style="text;strokeColor=none;fillColor=none;align=left;verticalAlign=middle;spacingLeft=4;spacingRight=4;overflow=hidden;points=[[0,0.5],[1,0.5]];portConstraint=eastwest;rotatable=0;whiteSpace=wrap;html=1;" parent="28" vertex="1">
                    <mxGeometry y="390" width="320" height="30" as="geometry"/>
                </mxCell>
                <mxCell id="89" value="mesh_1.flow_k l_1_3.flow_from" style="text;strokeColor=none;fillColor=none;align=left;verticalAlign=middle;spacingLeft=4;spacingRight=4;overflow=hidden;points=[[0,0.5],[1,0.5]];portConstraint=eastwest;rotatable=0;whiteSpace=wrap;html=1;" parent="28" vertex="1">
                    <mxGeometry y="420" width="320" height="30" as="geometry"/>
                </mxCell>
                <mxCell id="90" value="mesh_1.flow_k l_2_3.flow_from" style="text;strokeColor=none;fillColor=none;align=left;verticalAlign=middle;spacingLeft=4;spacingRight=4;overflow=hidden;points=[[0,0.5],[1,0.5]];portConstraint=eastwest;rotatable=0;whiteSpace=wrap;html=1;" parent="28" vertex="1">
                    <mxGeometry y="450" width="320" height="30" as="geometry"/>
                </mxCell>
                <mxCell id="136" value="mesh_1.flow_k hvdc.flow_from" style="text;strokeColor=none;fillColor=none;align=left;verticalAlign=middle;spacingLeft=4;spacingRight=4;overflow=hidden;points=[[0,0.5],[1,0.5]];portConstraint=eastwest;rotatable=0;whiteSpace=wrap;html=1;" vertex="1" parent="28">
                    <mxGeometry y="480" width="320" height="30" as="geometry"/>
                </mxCell>
                <mxCell id="139" value="hvdc.impact_1_2 l_1_2.impact" style="text;strokeColor=none;fillColor=none;align=left;verticalAlign=middle;spacingLeft=4;spacingRight=4;overflow=hidden;points=[[0,0.5],[1,0.5]];portConstraint=eastwest;rotatable=0;whiteSpace=wrap;html=1;" vertex="1" parent="28">
                    <mxGeometry y="510" width="320" height="30" as="geometry"/>
                </mxCell>
                <mxCell id="140" value="hvdc.impact_1_3 l_1_3.impact" style="text;strokeColor=none;fillColor=none;align=left;verticalAlign=middle;spacingLeft=4;spacingRight=4;overflow=hidden;points=[[0,0.5],[1,0.5]];portConstraint=eastwest;rotatable=0;whiteSpace=wrap;html=1;" vertex="1" parent="28">
                    <mxGeometry y="540" width="320" height="30" as="geometry"/>
                </mxCell>
                <mxCell id="141" value="hvdc.impact_2_3 l_2_3.impact" style="text;strokeColor=none;fillColor=none;align=left;verticalAlign=middle;spacingLeft=4;spacingRight=4;overflow=hidden;points=[[0,0.5],[1,0.5]];portConstraint=eastwest;rotatable=0;whiteSpace=wrap;html=1;" vertex="1" parent="28">
                    <mxGeometry y="570" width="320" height="30" as="geometry"/>
                </mxCell>
                <mxCell id="36" value="&lt;h1&gt;Study data&lt;/h1&gt;" style="text;html=1;strokeColor=none;fillColor=none;spacing=5;spacingTop=-20;whiteSpace=wrap;overflow=hidden;rounded=0;align=center;" parent="1" vertex="1">
                    <mxGeometry x="-16" y="400" width="250" height="40" as="geometry"/>
                </mxCell>
                <mxCell id="1DZpEdA2Pz-2I5nbqVrt-185" value="min&amp;nbsp;&amp;nbsp;&lt;span style=&quot;&quot;&gt;&lt;/span&gt;production costs + balance costs&lt;br&gt;s.t.&amp;nbsp;&lt;span style=&quot;&quot;&gt;&amp;nbsp; f_ac_1_2*Z_1_2 + f_ac_2_3*Z_2_3 + f_ac_1_3*Z_1_3 - f_dc * (eps_dc_1_2*Z_1_2 + eps_dc_2_3*Z_2_3 + eps_dc_1_3*Z_1_3 )= flow_0&amp;nbsp;&lt;/span&gt;&amp;nbsp;&amp;nbsp;&lt;br&gt;&lt;span style=&quot;&quot;&gt;&#9;&lt;/span&gt;&lt;span style=&quot;white-space: pre;&quot;&gt;&#9;&lt;/span&gt;-f_max_ac_i_j &amp;lt;= f_ac_i_j + f_dc * eps_dc_i_j &amp;lt;= f_max_ac_i_j for each ac line i j&amp;nbsp;&lt;br&gt;&lt;span style=&quot;white-space: pre;&quot;&gt;&#9;&lt;/span&gt;balance at elec node&lt;br&gt;&lt;span style=&quot;&quot;&gt;&#9;&lt;/span&gt;&lt;span style=&quot;white-space: pre;&quot;&gt;&#9;&lt;/span&gt;production constraints" style="text;html=1;strokeColor=#CCCCFF;fillColor=none;align=left;verticalAlign=middle;whiteSpace=wrap;rounded=0;dashed=1;dashPattern=1 1;strokeWidth=2;" parent="1" vertex="1">
                    <mxGeometry x="-46" y="-130" width="816" height="70" as="geometry"/>
                </mxCell>
                <mxCell id="1DZpEdA2Pz-2I5nbqVrt-186" value="&lt;i&gt;We represent a network with Kirchhoff's second law and a HVDC line between two nodes.&lt;/i&gt;" style="text;html=1;strokeColor=#FFCCCC;fillColor=none;align=left;verticalAlign=middle;whiteSpace=wrap;rounded=0;dashed=1;strokeWidth=2;" parent="1" vertex="1">
                    <mxGeometry x="-80" y="-270" width="534" height="40" as="geometry"/>
                </mxCell>
                <mxCell id="G6jGmKj02sHsCHb4SvRn-205" value="mesh_1" style="rounded=1;whiteSpace=wrap;html=1;container=0;" parent="1" vertex="1">
                    <mxGeometry x="1050" y="670" width="80" height="30" as="geometry"/>
                </mxCell>
                <mxCell id="G6jGmKj02sHsCHb4SvRn-206" value="flow_k" style="rounded=0;whiteSpace=wrap;html=1;fillColor=#dae8fc;strokeColor=#6c8ebf;container=0;" parent="1" vertex="1">
                    <mxGeometry x="1065" y="700" width="50" height="30" as="geometry"/>
                </mxCell>
                <mxCell id="G6jGmKj02sHsCHb4SvRn-207" value="" style="endArrow=classic;html=1;rounded=0;exitX=0.75;exitY=0;exitDx=0;exitDy=0;entryX=0;entryY=0.5;entryDx=0;entryDy=0;" parent="1" source="io5GCxzzSzc3zPwwghzN-184" edge="1" target="G6jGmKj02sHsCHb4SvRn-206">
                    <mxGeometry width="50" height="50" relative="1" as="geometry">
                        <mxPoint x="646" y="990" as="sourcePoint"/>
                        <mxPoint x="480" y="770" as="targetPoint"/>
                    </mxGeometry>
                </mxCell>
                <mxCell id="G6jGmKj02sHsCHb4SvRn-208" value="" style="endArrow=classic;html=1;rounded=0;exitX=0.75;exitY=0;exitDx=0;exitDy=0;entryX=0.5;entryY=1;entryDx=0;entryDy=0;" parent="1" source="io5GCxzzSzc3zPwwghzN-192" target="G6jGmKj02sHsCHb4SvRn-206" edge="1">
                    <mxGeometry width="50" height="50" relative="1" as="geometry">
                        <mxPoint x="803.0900000000001" y="990.54" as="sourcePoint"/>
                        <mxPoint x="715" y="1015" as="targetPoint"/>
                    </mxGeometry>
                </mxCell>
                <mxCell id="83" value="KirchhoffLaw : Model" style="swimlane;fontStyle=0;childLayout=stackLayout;horizontal=1;startSize=30;horizontalStack=0;resizeParent=1;resizeParentMax=0;resizeLast=0;collapsible=1;marginBottom=0;whiteSpace=wrap;html=1;fontColor=#000000;strokeColor=default;fillColor=#CCFFCC;" parent="1" vertex="1">
                    <mxGeometry x="1020" y="-10" width="200" height="120" as="geometry"/>
                </mxCell>
                <mxCell id="84" value="alpha, beta : Parameter" style="text;strokeColor=none;fillColor=none;align=left;verticalAlign=middle;spacingLeft=4;spacingRight=4;overflow=hidden;points=[[0,0.5],[1,0.5]];portConstraint=eastwest;rotatable=0;whiteSpace=wrap;html=1;" parent="83" vertex="1">
                    <mxGeometry y="30" width="200" height="30" as="geometry"/>
                </mxCell>
                <mxCell id="85" value="" style="endArrow=none;dashed=1;html=1;rounded=0;exitX=0;exitY=0.5;exitDx=0;exitDy=0;entryX=1;entryY=0.5;entryDx=0;entryDy=0;" parent="83" edge="1">
                    <mxGeometry width="50" height="50" relative="1" as="geometry">
                        <mxPoint y="60" as="sourcePoint"/>
                        <mxPoint x="200" y="60" as="targetPoint"/>
                    </mxGeometry>
                </mxCell>
                <mxCell id="86" value="flow_k : Flow" style="text;strokeColor=none;fillColor=none;align=left;verticalAlign=middle;spacingLeft=4;spacingRight=4;overflow=hidden;points=[[0,0.5],[1,0.5]];portConstraint=eastwest;rotatable=0;whiteSpace=wrap;html=1;" parent="83" vertex="1">
                    <mxGeometry y="60" width="200" height="30" as="geometry"/>
                </mxCell>
                <mxCell id="87" value="flow_k.sum(alpha) = beta" style="text;strokeColor=none;fillColor=none;align=left;verticalAlign=middle;spacingLeft=4;spacingRight=4;overflow=hidden;points=[[0,0.5],[1,0.5]];portConstraint=eastwest;rotatable=0;whiteSpace=wrap;html=1;" parent="83" vertex="1">
                    <mxGeometry y="90" width="200" height="30" as="geometry"/>
                </mxCell>
                <mxCell id="88" value="" style="endArrow=classic;html=1;rounded=0;exitX=0.75;exitY=0;exitDx=0;exitDy=0;entryX=0;entryY=0.25;entryDx=0;entryDy=0;" parent="1" source="io5GCxzzSzc3zPwwghzN-176" target="G6jGmKj02sHsCHb4SvRn-206" edge="1">
                    <mxGeometry width="50" height="50" relative="1" as="geometry">
                        <mxPoint x="761.73" y="890" as="sourcePoint"/>
                        <mxPoint x="715" y="1015" as="targetPoint"/>
                    </mxGeometry>
                </mxCell>
                <mxCell id="91" value="" style="endArrow=none;html=1;rounded=0;exitX=1;exitY=0;exitDx=0;exitDy=0;entryX=0;entryY=0;entryDx=0;entryDy=0;" edge="1" parent="1" source="gQHjPlM2CJMaZ_1cljnZ-1" target="gQHjPlM2CJMaZ_1cljnZ-2">
                    <mxGeometry width="50" height="50" relative="1" as="geometry">
                        <mxPoint x="234" y="-1.0000000000000924" as="sourcePoint"/>
                        <mxPoint x="368" y="-1.0000000000000924" as="targetPoint"/>
                    </mxGeometry>
                </mxCell>
                <mxCell id="92" value="HVDC" style="edgeLabel;html=1;align=center;verticalAlign=middle;resizable=0;points=[];" vertex="1" connectable="0" parent="91">
                    <mxGeometry x="-0.188" relative="1" as="geometry">
                        <mxPoint as="offset"/>
                    </mxGeometry>
                </mxCell>
                <mxCell id="96" value="LinkReceivingImpact : Model" style="swimlane;fontStyle=0;childLayout=stackLayout;horizontal=1;startSize=30;horizontalStack=0;resizeParent=1;resizeParentMax=0;resizeLast=0;collapsible=1;marginBottom=0;whiteSpace=wrap;html=1;fillColor=#CCFFCC;" vertex="1" parent="1">
                    <mxGeometry x="1270" y="-10" width="240" height="210" as="geometry"/>
                </mxCell>
                <mxCell id="97" value="f : Variable" style="text;strokeColor=none;fillColor=none;align=left;verticalAlign=middle;spacingLeft=4;spacingRight=4;overflow=hidden;points=[[0,0.5],[1,0.5]];portConstraint=eastwest;rotatable=0;whiteSpace=wrap;html=1;" vertex="1" parent="96">
                    <mxGeometry y="30" width="240" height="30" as="geometry"/>
                </mxCell>
                <mxCell id="98" value="f_max : Parameter" style="text;strokeColor=none;fillColor=none;align=left;verticalAlign=middle;spacingLeft=4;spacingRight=4;overflow=hidden;points=[[0,0.5],[1,0.5]];portConstraint=eastwest;rotatable=0;whiteSpace=wrap;html=1;" vertex="1" parent="96">
                    <mxGeometry y="60" width="240" height="30" as="geometry"/>
                </mxCell>
                <mxCell id="99" value="-f_max &amp;lt;= f + impact.f.sum() &amp;lt;= f_max" style="text;strokeColor=none;fillColor=none;align=left;verticalAlign=middle;spacingLeft=4;spacingRight=4;overflow=hidden;points=[[0,0.5],[1,0.5]];portConstraint=eastwest;rotatable=0;whiteSpace=wrap;html=1;" vertex="1" parent="96">
                    <mxGeometry y="90" width="240" height="30" as="geometry"/>
                </mxCell>
                <mxCell id="100" value="flow_from, flow_to, impact : Flow" style="text;strokeColor=none;fillColor=none;align=left;verticalAlign=middle;spacingLeft=4;spacingRight=4;overflow=hidden;points=[[0,0.5],[1,0.5]];portConstraint=eastwest;rotatable=0;whiteSpace=wrap;html=1;" vertex="1" parent="96">
                    <mxGeometry y="120" width="240" height="30" as="geometry"/>
                </mxCell>
                <mxCell id="101" value="" style="endArrow=none;dashed=1;html=1;rounded=0;exitX=0;exitY=0.5;exitDx=0;exitDy=0;entryX=1;entryY=0.5;entryDx=0;entryDy=0;" edge="1" parent="96">
                    <mxGeometry width="50" height="50" relative="1" as="geometry">
                        <mxPoint y="150" as="sourcePoint"/>
                        <mxPoint x="210" y="150" as="targetPoint"/>
                    </mxGeometry>
                </mxCell>
                <mxCell id="102" value="flow_from.f = -f" style="text;strokeColor=none;fillColor=none;align=left;verticalAlign=middle;spacingLeft=4;spacingRight=4;overflow=hidden;points=[[0,0.5],[1,0.5]];portConstraint=eastwest;rotatable=0;whiteSpace=wrap;html=1;" vertex="1" parent="96">
                    <mxGeometry y="150" width="240" height="30" as="geometry"/>
                </mxCell>
                <mxCell id="103" value="" style="endArrow=none;dashed=1;html=1;rounded=0;exitX=0;exitY=0.5;exitDx=0;exitDy=0;entryX=1;entryY=0.5;entryDx=0;entryDy=0;" edge="1" parent="96">
                    <mxGeometry width="50" height="50" relative="1" as="geometry">
                        <mxPoint y="119" as="sourcePoint"/>
                        <mxPoint x="210" y="119" as="targetPoint"/>
                    </mxGeometry>
                </mxCell>
                <mxCell id="104" value="flow_to.f = f" style="text;strokeColor=none;fillColor=none;align=left;verticalAlign=middle;spacingLeft=4;spacingRight=4;overflow=hidden;points=[[0,0.5],[1,0.5]];portConstraint=eastwest;rotatable=0;whiteSpace=wrap;html=1;" vertex="1" parent="96">
                    <mxGeometry y="180" width="240" height="30" as="geometry"/>
                </mxCell>
                <mxCell id="105" value="LinkSendingImpact : Model" style="swimlane;fontStyle=0;childLayout=stackLayout;horizontal=1;startSize=30;horizontalStack=0;resizeParent=1;resizeParentMax=0;resizeLast=0;collapsible=1;marginBottom=0;whiteSpace=wrap;html=1;fillColor=#CCFFCC;" vertex="1" parent="1">
                    <mxGeometry x="810" y="130" width="360" height="300" as="geometry"/>
                </mxCell>
                <mxCell id="106" value="f : Variable" style="text;strokeColor=none;fillColor=none;align=left;verticalAlign=middle;spacingLeft=4;spacingRight=4;overflow=hidden;points=[[0,0.5],[1,0.5]];portConstraint=eastwest;rotatable=0;whiteSpace=wrap;html=1;" vertex="1" parent="105">
                    <mxGeometry y="30" width="360" height="30" as="geometry"/>
                </mxCell>
                <mxCell id="107" value="f_max, eps_1_2,eps_1_3, eps_2_3 : Parameter" style="text;strokeColor=none;fillColor=none;align=left;verticalAlign=middle;spacingLeft=4;spacingRight=4;overflow=hidden;points=[[0,0.5],[1,0.5]];portConstraint=eastwest;rotatable=0;whiteSpace=wrap;html=1;" vertex="1" parent="105">
                    <mxGeometry y="60" width="360" height="30" as="geometry"/>
                </mxCell>
                <mxCell id="108" value="-f_max &amp;lt;= f &amp;lt;= f_max" style="text;strokeColor=none;fillColor=none;align=left;verticalAlign=middle;spacingLeft=4;spacingRight=4;overflow=hidden;points=[[0,0.5],[1,0.5]];portConstraint=eastwest;rotatable=0;whiteSpace=wrap;html=1;" vertex="1" parent="105">
                    <mxGeometry y="90" width="360" height="30" as="geometry"/>
                </mxCell>
                <mxCell id="109" value="flow_from, flow_to, impact_1_2, impact_2_3, impact_1_3 : Flow" style="text;strokeColor=none;fillColor=none;align=left;verticalAlign=middle;spacingLeft=4;spacingRight=4;overflow=hidden;points=[[0,0.5],[1,0.5]];portConstraint=eastwest;rotatable=0;whiteSpace=wrap;html=1;" vertex="1" parent="105">
                    <mxGeometry y="120" width="360" height="30" as="geometry"/>
                </mxCell>
                <mxCell id="110" value="" style="endArrow=none;dashed=1;html=1;rounded=0;exitX=0;exitY=0.5;exitDx=0;exitDy=0;entryX=1;entryY=0.5;entryDx=0;entryDy=0;" edge="1" parent="105">
                    <mxGeometry width="50" height="50" relative="1" as="geometry">
                        <mxPoint y="150" as="sourcePoint"/>
                        <mxPoint x="210" y="150" as="targetPoint"/>
                    </mxGeometry>
                </mxCell>
                <mxCell id="111" value="flow_from.f = -f" style="text;strokeColor=none;fillColor=none;align=left;verticalAlign=middle;spacingLeft=4;spacingRight=4;overflow=hidden;points=[[0,0.5],[1,0.5]];portConstraint=eastwest;rotatable=0;whiteSpace=wrap;html=1;" vertex="1" parent="105">
                    <mxGeometry y="150" width="360" height="30" as="geometry"/>
                </mxCell>
                <mxCell id="112" value="" style="endArrow=none;dashed=1;html=1;rounded=0;exitX=0;exitY=0.5;exitDx=0;exitDy=0;entryX=1;entryY=0.5;entryDx=0;entryDy=0;" edge="1" parent="105">
                    <mxGeometry width="50" height="50" relative="1" as="geometry">
                        <mxPoint y="119" as="sourcePoint"/>
                        <mxPoint x="210" y="119" as="targetPoint"/>
                    </mxGeometry>
                </mxCell>
                <mxCell id="113" value="flow_to.f = f" style="text;strokeColor=none;fillColor=none;align=left;verticalAlign=middle;spacingLeft=4;spacingRight=4;overflow=hidden;points=[[0,0.5],[1,0.5]];portConstraint=eastwest;rotatable=0;whiteSpace=wrap;html=1;" vertex="1" parent="105">
                    <mxGeometry y="180" width="360" height="30" as="geometry"/>
                </mxCell>
                <mxCell id="114" value="impact_1_2.f = f * eps_1_2" style="text;strokeColor=none;fillColor=none;align=left;verticalAlign=middle;spacingLeft=4;spacingRight=4;overflow=hidden;points=[[0,0.5],[1,0.5]];portConstraint=eastwest;rotatable=0;whiteSpace=wrap;html=1;" vertex="1" parent="105">
                    <mxGeometry y="210" width="360" height="30" as="geometry"/>
                </mxCell>
                <mxCell id="115" value="impact_1_3.f = f * eps_1_3" style="text;strokeColor=none;fillColor=none;align=left;verticalAlign=middle;spacingLeft=4;spacingRight=4;overflow=hidden;points=[[0,0.5],[1,0.5]];portConstraint=eastwest;rotatable=0;whiteSpace=wrap;html=1;" vertex="1" parent="105">
                    <mxGeometry y="240" width="360" height="30" as="geometry"/>
                </mxCell>
                <mxCell id="116" value="impact_2_3.f = f * eps_2_3" style="text;strokeColor=none;fillColor=none;align=left;verticalAlign=middle;spacingLeft=4;spacingRight=4;overflow=hidden;points=[[0,0.5],[1,0.5]];portConstraint=eastwest;rotatable=0;whiteSpace=wrap;html=1;" vertex="1" parent="105">
                    <mxGeometry y="270" width="360" height="30" as="geometry"/>
                </mxCell>
                <mxCell id="121" value="" style="group" vertex="1" connectable="0" parent="1">
                    <mxGeometry x="370" y="880" width="121.73000000000002" height="170" as="geometry"/>
                </mxCell>
                <mxCell id="122" value="hvdc" style="ellipse;whiteSpace=wrap;html=1;" vertex="1" parent="121">
                    <mxGeometry y="30" width="120" height="80" as="geometry"/>
                </mxCell>
                <mxCell id="123" value="" style="group;fillColor=#dae8fc;strokeColor=#6c8ebf;" vertex="1" connectable="0" parent="121">
                    <mxGeometry x="10" width="100" height="30" as="geometry"/>
                </mxCell>
                <mxCell id="124" value="flow_from" style="rounded=0;whiteSpace=wrap;html=1;fillColor=#dae8fc;strokeColor=#6c8ebf;" vertex="1" parent="123">
                    <mxGeometry x="-10" width="60" height="30" as="geometry"/>
                </mxCell>
                <mxCell id="125" value="flow_to" style="rounded=0;whiteSpace=wrap;html=1;fillColor=#dae8fc;strokeColor=#6c8ebf;" vertex="1" parent="123">
                    <mxGeometry x="50" width="50" height="30" as="geometry"/>
                </mxCell>
                <mxCell id="126" value="impact_1_2" style="rounded=0;whiteSpace=wrap;html=1;fillColor=#dae8fc;strokeColor=#6c8ebf;" vertex="1" parent="121">
                    <mxGeometry x="22.93" y="110" width="74.14" height="30" as="geometry"/>
                </mxCell>
                <mxCell id="130" value="impact_2_3" style="rounded=0;whiteSpace=wrap;html=1;fillColor=#dae8fc;strokeColor=#6c8ebf;" vertex="1" parent="121">
                    <mxGeometry x="22.930000000000007" y="140" width="74.14" height="30" as="geometry"/>
                </mxCell>
                <mxCell id="127" value="" style="endArrow=classic;html=1;rounded=0;exitX=0.75;exitY=0;exitDx=0;exitDy=0;entryX=0;entryY=0;entryDx=0;entryDy=0;" edge="1" parent="1" source="124" target="G6jGmKj02sHsCHb4SvRn-206">
                    <mxGeometry width="50" height="50" relative="1" as="geometry">
                        <mxPoint x="641" y="860" as="sourcePoint"/>
                        <mxPoint x="1075" y="717.5" as="targetPoint"/>
                    </mxGeometry>
                </mxCell>
                <mxCell id="128" value="" style="endArrow=classic;html=1;rounded=0;exitX=0.5;exitY=0;exitDx=0;exitDy=0;entryX=0;entryY=1;entryDx=0;entryDy=0;" edge="1" parent="1" source="124" target="io5GCxzzSzc3zPwwghzN-150">
                    <mxGeometry width="50" height="50" relative="1" as="geometry">
                        <mxPoint x="425" y="890" as="sourcePoint"/>
                        <mxPoint x="1075" y="710" as="targetPoint"/>
                    </mxGeometry>
                </mxCell>
                <mxCell id="129" value="" style="endArrow=classic;html=1;rounded=0;exitX=0.75;exitY=0;exitDx=0;exitDy=0;entryX=0;entryY=0.5;entryDx=0;entryDy=0;" edge="1" parent="1" source="125" target="io5GCxzzSzc3zPwwghzN-153">
                    <mxGeometry width="50" height="50" relative="1" as="geometry">
                        <mxPoint x="410" y="890" as="sourcePoint"/>
                        <mxPoint x="625" y="680" as="targetPoint"/>
                    </mxGeometry>
                </mxCell>
                <mxCell id="131" value="impact_1_3" style="rounded=0;whiteSpace=wrap;html=1;fillColor=#dae8fc;strokeColor=#6c8ebf;" vertex="1" parent="1">
                    <mxGeometry x="392.86" y="1050" width="74.14" height="30" as="geometry"/>
                </mxCell>
                <mxCell id="132" value="" style="endArrow=classic;html=1;rounded=0;entryX=0;entryY=0.5;entryDx=0;entryDy=0;exitX=1;exitY=0.5;exitDx=0;exitDy=0;" edge="1" parent="1" source="126" target="120">
                    <mxGeometry width="50" height="50" relative="1" as="geometry">
                        <mxPoint x="570" y="950" as="sourcePoint"/>
                        <mxPoint x="625" y="680" as="targetPoint"/>
                    </mxGeometry>
                </mxCell>
                <mxCell id="133" value="" style="endArrow=classic;html=1;rounded=0;entryX=0;entryY=0.75;entryDx=0;entryDy=0;exitX=1;exitY=0.5;exitDx=0;exitDy=0;" edge="1" parent="1" source="130" target="118">
                    <mxGeometry width="50" height="50" relative="1" as="geometry">
                        <mxPoint x="477.0699999999997" y="1015" as="sourcePoint"/>
                        <mxPoint x="631.8600000000001" y="985" as="targetPoint"/>
                    </mxGeometry>
                </mxCell>
                <mxCell id="134" value="" style="endArrow=classic;html=1;rounded=0;entryX=0;entryY=0.5;entryDx=0;entryDy=0;exitX=1;exitY=0.5;exitDx=0;exitDy=0;" edge="1" parent="1" source="131" target="119">
                    <mxGeometry width="50" height="50" relative="1" as="geometry">
                        <mxPoint x="477.0699999999997" y="1045" as="sourcePoint"/>
                        <mxPoint x="986.73" y="992.5" as="targetPoint"/>
                    </mxGeometry>
                </mxCell>
            </root>
        </mxGraphModel>
    </diagram>
</mxfile>